<svg width="166" height="57" viewBox="0 0 166 57" fill="none" xmlns="http://www.w3.org/2000/svg">
<path d="M6.288 39.72C3.152 39.72 0.688 42.072 0.688 45.416C0.688 48.76 3.152 51.096 6.288 51.096C9.312 51.096 11.504 48.872 11.76 46.104V44.984H5.76V46.168H10.208C9.984 48.376 8.48 49.784 6.288 49.784C3.936 49.784 2.176 48.088 2.176 45.416C2.176 42.728 3.936 41.032 6.288 41.032C7.856 41.032 9.072 41.784 9.68 43.08H11.424C10.592 40.936 8.64 39.72 6.288 39.72ZM25.4531 43.128C25.4531 44.376 24.7331 45.272 23.0851 45.272H20.9411V41.048H23.0851C24.7491 41.048 25.4531 41.864 25.4531 43.128ZM19.4851 39.848V51H20.9411V46.44H22.7011L25.3571 51H27.1011L24.3011 46.328C26.1731 45.912 26.9571 44.552 26.9571 43.128C26.9571 41.304 25.7091 39.848 23.0851 39.848H19.4851ZM45.6755 45.416C45.6755 42.072 43.2275 39.72 40.0755 39.72C36.9395 39.72 34.4755 42.072 34.4755 45.416C34.4755 48.76 36.9395 51.112 40.0755 51.112C43.2275 51.112 45.6755 48.76 45.6755 45.416ZM35.9635 45.416C35.9635 42.68 37.7235 40.984 40.0755 40.984C42.4275 40.984 44.1875 42.68 44.1875 45.416C44.1875 48.136 42.4275 49.848 40.0755 49.848C37.7235 49.848 35.9635 48.136 35.9635 45.416ZM52.8536 45.416C52.8536 48.76 55.3016 51.096 58.4216 51.096C60.8376 51.096 62.7576 49.896 63.5896 47.752H61.8456C61.2376 49.08 60.0536 49.832 58.4216 49.832C56.0856 49.832 54.3416 48.136 54.3416 45.416C54.3416 42.68 56.0856 40.984 58.4216 40.984C60.0536 40.984 61.2376 41.736 61.8456 43.08H63.5896C62.7576 40.92 60.8376 39.704 58.4216 39.704C55.3016 39.704 52.8536 42.072 52.8536 45.416ZM77.557 39.832H71.557V51H77.557V49.8H73.013V45.96H77.077V44.76H73.013V41.032H77.557V39.832ZM91.5281 43.128C91.5281 44.376 90.8081 45.272 89.1601 45.272H87.0161V41.048H89.1601C90.8241 41.048 91.5281 41.864 91.5281 43.128ZM85.5601 39.848V51H87.0161V46.44H88.7761L91.4321 51H93.1761L90.3761 46.328C92.2481 45.912 93.0321 44.552 93.0321 43.128C93.0321 41.304 91.7841 39.848 89.1601 39.848H85.5601ZM103.815 46.792V51H105.271V46.792L108.903 39.848H107.287L104.535 45.496L101.783 39.848H100.167L103.815 46.792ZM133.792 51H135.328L131.312 39.912H129.632L125.6 51H127.136L128.032 48.52H132.896L133.792 51ZM132.48 47.336H128.448L130.464 41.704L132.48 47.336ZM144.341 45.144V41.048H146.485C148.149 41.048 148.853 41.816 148.853 43.112C148.853 44.36 148.149 45.144 146.485 45.144H144.341ZM150.341 43.112C150.341 41.288 149.109 39.848 146.485 39.848H142.885V51H144.341V46.344H146.485C149.253 46.344 150.341 44.808 150.341 43.112ZM159.407 45.144V41.048H161.551C163.215 41.048 163.919 41.816 163.919 43.112C163.919 44.36 163.215 45.144 161.551 45.144H159.407ZM165.407 43.112C165.407 41.288 164.175 39.848 161.551 39.848H157.951V51H159.407V46.344H161.551C164.319 46.344 165.407 44.808 165.407 43.112Z" fill="white"/>
<path d="M16.0606 29.279V21.4963H8.63317V0.445567H0.832031V29.279H16.0606ZM26.6568 29.279C30.4405 29.279 34.0375 27.2162 35.1119 23.5592C37.1206 16.6673 39.3161 9.72854 39.3161 7.61877C39.3161 3.49301 36.1863 0.49245 32.0755 0.49245H22.2657C18.0148 0.49245 14.6514 3.11794 14.6514 7.57189C14.6514 10.1974 17.9681 20.418 18.9023 23.6061C19.93 27.0755 23.2467 29.279 26.6568 29.279ZM27.7779 20.8869C27.6377 21.3088 27.3107 21.5432 26.9838 21.5432C26.6568 21.5432 26.3298 21.3088 26.1429 20.8869L22.4993 8.32203H31.4215L27.7779 20.8869ZM64.7627 29.279L57.055 14.792C57.5222 14.2763 57.8959 13.8074 58.1761 13.4324C60.325 10.3849 62.3336 4.00873 63.9219 0.445567H55.5135L52.1034 8.4158C51.8231 9.11905 51.029 9.96296 50.3283 10.338V0.445567H42.5739V10.4318H40.3316V18.1676H42.5739V29.279H50.3283V18.6833L55.9339 29.279H64.7627ZM95.0445 29.279V0.445567H86.9631L81.0305 10.3849L75.0512 0.445567H66.9698V29.279H74.6775V14.7451L81.0772 25.2002L87.3368 14.8389V29.279H95.0445ZM117.157 29.279V0.398682H115.569C104.685 0.398682 97.2574 9.2597 97.2574 19.1522V29.279H105.012V22.9966H109.45V29.279H117.157ZM109.45 15.2608H105.526C106.273 12.8697 107.488 10.8537 109.45 9.44724V15.2608ZM143.251 29.279C140.868 26.1847 137.739 22.2934 135.31 19.1053C136.244 17.6519 138.487 11.8383 139.047 9.82231C139.233 9.11905 139.374 8.27515 139.374 7.43124C139.374 3.35236 135.73 0.445567 132.226 0.445567H119.334V29.279H127.042V22.9966H128.303L133.394 29.279H143.251ZM131.386 8.46268L129.144 14.0887C128.77 15.0264 128.21 15.2608 127.743 15.2608H127.042V8.27514H131.386V8.46268ZM165.107 8.27514V0.445567H142.824V8.27514H150.065V29.279H157.82V8.27514H165.107Z" fill="white"/>
</svg>
