<svg width="24" height="19" viewBox="0 0 24 19" fill="none" xmlns="http://www.w3.org/2000/svg">
<path d="M19.5257 0.966253C19.2324 0.673002 18.7584 0.673002 18.4652 0.966253L16.3922 3.03925C15.0804 2.51125 13.6157 2.17075 12.0002 2.17075C4.80091 2.17075 0.303907 9.15551 0.116407 9.45326C0.00540721 9.62951 -0.0230928 9.83426 0.0204072 10.0225C-0.0155928 10.201 0.00765722 10.3923 0.110407 10.5603C0.214657 10.7313 1.70191 13.102 4.34191 15.091L2.59966 16.8325C2.30641 17.1258 2.30641 17.5998 2.59966 17.893C2.74591 18.0393 2.93791 18.1128 3.12991 18.1128C3.32191 18.1128 3.51391 18.0393 3.66016 17.893L19.5257 2.02675C19.8182 1.73425 19.8182 1.2595 19.5257 0.966253ZM7.68016 9.95576C7.68016 7.57376 9.61816 5.63576 12.0002 5.63576C12.5342 5.63576 13.0442 5.73626 13.5159 5.91476L12.2702 7.16051C12.1802 7.15076 12.0924 7.13576 12.0002 7.13576C10.4454 7.13576 9.18016 8.40101 9.18016 9.95576C9.18016 10.048 9.19591 10.1358 9.20491 10.2258L7.95916 11.4715C7.78066 11.0005 7.68016 10.4898 7.68016 9.95576ZM23.8839 10.5468C23.6964 10.8438 19.1994 17.8293 12.0002 17.8293C10.1207 17.8293 8.44066 17.3725 6.97441 16.6915L9.92416 13.741C10.5407 14.0808 11.2487 14.275 12.0009 14.275C14.3829 14.275 16.3209 12.337 16.3209 9.95501C16.3209 9.20276 16.1267 8.49551 15.7869 7.87826L19.1394 4.52576C22.1049 6.57926 23.7804 9.25751 23.8907 9.43901C23.9934 9.60701 24.0167 9.79826 23.9807 9.97676C24.0234 10.1665 23.9957 10.3705 23.8839 10.5468ZM11.0627 12.6033L14.6477 9.01901C14.7527 9.31376 14.8202 9.62651 14.8202 9.95651C14.8202 11.5113 13.5549 12.7765 12.0002 12.7765C11.6702 12.7758 11.3574 12.7083 11.0627 12.6033Z" fill="url(#paint0_linear_1_1972)"/>
<defs>
<linearGradient id="paint0_linear_1_1972" x1="0.000976518" y1="9.42953" x2="24.1878" y2="9.42953" gradientUnits="userSpaceOnUse">
<stop stop-color="#FF8B38"/>
<stop offset="1" stop-color="#F3664B"/>
</linearGradient>
</defs>
</svg>
