<svg width="24" height="18" viewBox="0 0 24 18" fill="none" xmlns="http://www.w3.org/2000/svg">
<path d="M23.9247 8.64855C21.7643 3.80497 16.8608 0.427322 12 0.427322C7.1393 0.427322 2.23571 3.80497 0.0753863 8.64855C-0.0251288 8.87209 -0.0251288 9.12798 0.0753863 9.35152C2.23571 14.1951 7.1393 17.5727 12 17.5727C16.8608 17.5727 21.7643 14.1951 23.9247 9.35152C24.0251 9.12793 24.0251 8.87209 23.9247 8.64855ZM12 13.2864C9.63273 13.2864 7.71367 11.3673 7.71367 9.00003C7.71367 6.63273 9.63273 4.71368 12 4.71368C14.3673 4.71368 16.2864 6.63273 16.2864 9.00003C16.2864 11.3673 14.3673 13.2864 12 13.2864Z" fill="url(#paint0_linear_1_2046)"/>
<defs>
<linearGradient id="paint0_linear_1_2046" x1="-4.47035e-08" y1="9.00003" x2="24.1881" y2="9.00003" gradientUnits="userSpaceOnUse">
<stop stop-color="#FF8B38"/>
<stop offset="1" stop-color="#F3664B"/>
</linearGradient>
</defs>
</svg>
